<svg xmlns="http://www.w3.org/2000/svg" width="116" height="36" viewBox="0 0 116 36"><defs><style>.a{fill:none;}.b{fill:#1a488e;}.c{fill:#092147;}</style></defs><g transform="translate(0.477 0.296)"><rect class="a" width="36" height="36" transform="translate(-0.477 -0.296)"/><g transform="translate(0.587 0.724)"><path class="b" d="M44.96,27.306a45.646,45.646,0,0,1-3.5,13.456,35.005,35.005,0,0,1-10.329,13.7l-3.451,2.674-3.437-2.674c-5.371-4.175-9.608-10.584-11.959-18.04a46.681,46.681,0,0,1-1.867-9.113A31.985,31.985,0,0,1,21.4,22.877,35.489,35.489,0,0,0,23.013,33.05c.056.212.129.44.2.661.056.129.1.271.142.4.1.268.185.522.284.78.056.139.112.268.155.393.169.41.331.823.522,1.22.069.169.155.331.225.509.03.056.059.112.086.169.073.169.155.331.241.5a26.386,26.386,0,0,0,2.816,4.456h0c3.847-4.855,6.154-11.8,6.28-19.26a31.985,31.985,0,0,1,11,4.436Z" transform="translate(-10.42 -22.87)"/><path class="c" d="M79.96,27.309a45.461,45.461,0,0,1-3.5,13.459A35.051,35.051,0,0,1,66.141,54.455L62.69,57.139V42.133c3.847-4.855,6.164-11.8,6.28-19.253a31.876,31.876,0,0,1,10.99,4.429Z" transform="translate(-45.413 -22.877)"/></g><g transform="translate(42.647 10.91)"><rect class="a" width="73" height="14" transform="translate(-0.123 -0.205)"/><g transform="translate(0.331 0.055)"><path class="c" d="M231.552,68.112a6.994,6.994,0,0,1-3.348-.764,5.484,5.484,0,0,1-2.2-2.115,5.949,5.949,0,0,1-.78-3.034V54.57h2.975v7.6a3.424,3.424,0,0,0,.453,1.775,3.226,3.226,0,0,0,1.22,1.193,3.477,3.477,0,0,0,3.348,0,3.226,3.226,0,0,0,1.22-1.193,3.424,3.424,0,0,0,.453-1.775v-7.6h2.975V62.2a5.87,5.87,0,0,1-.793,3.034,5.589,5.589,0,0,1-2.2,2.115A6.908,6.908,0,0,1,231.552,68.112Z" transform="translate(-195.431 -54.339)"/><path class="c" d="M323.441,57.775a5.949,5.949,0,0,0-2.261-2.36,5.555,5.555,0,0,0-.539-.281,6.429,6.429,0,0,0-2.71-.565H311V68.121h6.941a6.382,6.382,0,0,0,3.239-.849,5.831,5.831,0,0,0,2.185-2.221,1.378,1.378,0,0,0,.076-.139,7.456,7.456,0,0,0,.816-3.576A7.37,7.37,0,0,0,323.441,57.775Zm-2.36,5.355a.082.082,0,0,1,0,.023,3.421,3.421,0,0,1-1.263,1.279,3.636,3.636,0,0,1-1.9.486h-3.874V57.759H317.9a3.652,3.652,0,0,1,1.9.486,3.454,3.454,0,0,1,1.263,1.282.084.084,0,0,1,0,.023,3.715,3.715,0,0,1,0,3.58Z" transform="translate(-252.86 -54.338)"/><path class="c" d="M283.581,65.058v3.054h-4.832a4.859,4.859,0,0,1-4.859-4.859V54.57h3.054v8.683a1.8,1.8,0,0,0,1.762,1.8.851.851,0,0,0,.093,0Z" transform="translate(-228.016 -54.339)"/><path class="c" d="M141.592,68.058l-.906-.711c-3.5-2.72-5.586-7.526-5.586-12.848h2.975a14.009,14.009,0,0,0,3.514,9.668,12.23,12.23,0,0,0,2.8-4.882,15.9,15.9,0,0,0,.721-4.8h2.975a18.942,18.942,0,0,1-.856,5.692,14.557,14.557,0,0,1-4.727,7.156Z" transform="translate(-135.1 -54.285)"/><path class="c" d="M190.029,61.862a14.788,14.788,0,0,0-4.8-7.272l-.925-.721-.935.721c-3.55,2.767-5.665,7.642-5.665,13.053h3.028a16.372,16.372,0,0,1,.182-2.466h6.806a17.285,17.285,0,0,1,.175,2.466h3.031a19.19,19.19,0,0,0-.891-5.777Zm-8.485.661a12.16,12.16,0,0,1,2.757-4.7,12.256,12.256,0,0,1,2.753,4.7Z" transform="translate(-163.62 -53.87)"/></g></g></g></svg>